<?xml version="1.0" standalone="no"?>
<!DOCTYPE svg PUBLIC "-//W3C//DTD SVG 20010904//EN"
 "http://www.w3.org/TR/2001/REC-SVG-20010904/DTD/svg10.dtd">
<svg version="1.0" xmlns="http://www.w3.org/2000/svg"
 width="1120.000000pt" height="1098.000000pt" viewBox="0 0 1120.000000 1098.000000"
 preserveAspectRatio="xMidYMid meet">

<g transform="translate(0.000000,1098.000000) scale(0.100000,-0.100000)"
fill="#000000" stroke="none">
<path d="M2155 10883 c-261 -32 -469 -92 -690 -197 -230 -110 -387 -219 -569
-396 -192 -186 -313 -353 -431 -595 -97 -200 -148 -353 -192 -585 -17 -90 -18
-258 -18 -3535 0 -3277 1 -3445 18 -3535 69 -363 203 -671 408 -942 80 -106
251 -282 354 -365 308 -249 698 -413 1095 -463 118 -14 6752 -14 6870 0 296
37 618 148 860 297 198 123 420 318 553 486 250 317 408 692 457 1087 14 118
14 6752 0 6870 -50 397 -214 787 -463 1095 -83 103 -259 274 -365 354 -264
200 -555 328 -917 404 l-100 21 -3420 2 c-1881 0 -3433 -1 -3450 -3z m1895
-2785 c-180 -110 -359 -250 -533 -417 -440 -422 -755 -1028 -847 -1629 -59
-386 -46 -787 40 -1158 66 -286 229 -668 387 -906 280 -421 554 -685 993 -956
l35 -22 -965 2 -965 3 -81 28 c-259 91 -437 271 -521 527 l-28 85 0 1915 c0
2090 -4 1953 58 2095 117 267 350 441 637 474 41 5 480 9 975 10 l899 1 -84
-52z m4932 30 c256 -62 452 -226 555 -463 62 -143 58 -5 58 -2095 l0 -1915
-28 -85 c-84 -256 -262 -436 -521 -527 l-81 -28 -965 -3 -965 -2 35 22 c439
271 713 535 993 956 158 238 321 620 387 906 86 371 99 772 40 1158 -92 601
-407 1207 -847 1629 -174 166 -352 306 -533 417 l-85 53 945 -4 c829 -3 953
-5 1012 -19z m-3113 -514 c597 -78 1158 -443 1480 -962 381 -614 419 -1388 99
-2026 -103 -206 -209 -356 -368 -520 -176 -182 -341 -304 -558 -414 -300 -152
-602 -224 -942 -224 -551 0 -1049 201 -1444 582 -416 401 -638 924 -638 1500
0 403 103 763 319 1112 151 245 406 500 651 651 432 268 895 367 1401 301z"/>
<path d="M4656 6663 c-21 -22 13 -221 43 -251 16 -16 37 -56 29 -58 -2 0 9
-17 24 -36 15 -20 24 -38 21 -42 -4 -3 -1 -6 5 -6 7 0 12 -7 12 -15 0 -9 7
-18 15 -21 8 -4 15 -12 15 -20 0 -8 5 -14 10 -14 6 0 10 -7 10 -15 0 -8 5 -15
10 -15 6 0 10 -4 10 -9 0 -6 14 -25 30 -43 17 -18 30 -38 30 -44 0 -19 210
-252 372 -411 l154 -152 -165 -143 c-253 -219 -529 -464 -599 -532 -71 -68
-92 -101 -92 -143 0 -35 37 -100 71 -125 34 -25 101 -34 139 -18 33 14 185
176 555 595 136 154 250 280 252 280 2 0 25 -25 51 -56 26 -31 157 -181 292
-334 135 -154 284 -324 333 -379 109 -126 165 -155 241 -126 55 21 83 115 53
183 -7 15 -194 214 -417 443 -223 229 -406 422 -408 428 -5 20 129 150 190
185 36 20 85 37 137 46 44 8 93 20 108 29 51 26 565 596 538 596 -3 0 -83 -73
-177 -162 -242 -231 -328 -302 -345 -284 -16 15 32 72 228 272 200 203 250
262 202 235 -10 -5 -104 -92 -209 -194 -189 -183 -264 -247 -291 -247 -44 0
20 80 260 327 103 105 187 194 187 197 0 22 -43 -15 -203 -172 -224 -219 -284
-272 -308 -272 -26 0 -24 10 12 59 28 39 348 380 398 425 31 28 25 41 -9 16
-102 -72 -529 -464 -558 -511 -13 -22 -27 -67 -33 -105 -13 -94 -58 -174 -148
-262 -41 -40 -80 -71 -85 -70 -6 2 -222 218 -480 481 -258 263 -477 482 -486
487 -10 5 -20 6 -24 3z m1873 -1998 c-15 -53 -24 -63 -70 -75 -58 -16 -72 1
-15 17 48 14 58 26 71 87 4 18 10 25 15 20 6 -6 5 -25 -1 -49z"/>
</g>
</svg>
